<?xml version="1.0" encoding="UTF-8" standalone="no"?>
<!-- Created with Inkscape (http://www.inkscape.org/) -->

<svg
   width="5mm"
   height="5mm"
   viewBox="0 0 5.0000001 5.0000001"
   version="1.1"
   id="svg2235"
   inkscape:version="1.1.2 (76b9e6a115, 2022-02-25)"
   sodipodi:docname="paser.svg"
   xmlns:inkscape="http://www.inkscape.org/namespaces/inkscape"
   xmlns:sodipodi="http://sodipodi.sourceforge.net/DTD/sodipodi-0.dtd"
   xmlns="http://www.w3.org/2000/svg"
   xmlns:svg="http://www.w3.org/2000/svg">
  <sodipodi:namedview
     id="namedview2237"
     pagecolor="#505050"
     bordercolor="#eeeeee"
     borderopacity="1"
     inkscape:pageshadow="0"
     inkscape:pageopacity="0"
     inkscape:pagecheckerboard="0"
     inkscape:document-units="mm"
     showgrid="false"
     units="mm"
     inkscape:zoom="24.060157"
     inkscape:cx="5.2992173"
     inkscape:cy="10.369841"
     inkscape:window-width="1876"
     inkscape:window-height="1016"
     inkscape:window-x="44"
     inkscape:window-y="27"
     inkscape:window-maximized="1"
     inkscape:current-layer="layer1" />
  <defs
     id="defs2232" />
  <g
     inkscape:label="Layer 1"
     inkscape:groupmode="layer"
     id="layer1">
    <g
       id="g8589"
       transform="translate(0.38333338,0.38333338)">
      <g
         id="g982"
         transform="matrix(0.35277777,0,0,-0.35277777,3.8805555,2.1166666)">
        <path
           d="m 0,0 c 0,-2.761 -2.239,-5 -5,-5 -2.761,0 -5,2.239 -5,5 0,2.761 2.239,5 5,5 2.761,0 5,-2.239 5,-5 z"
           style="fill:none;stroke:#ffffff;stroke-width:1.25;stroke-linecap:butt;stroke-linejoin:miter;stroke-miterlimit:10;stroke-dasharray:none;stroke-opacity:1"
           id="path984" />
      </g>
      <g
         id="g986"
         transform="matrix(0.35277777,0,0,-0.35277777,0,2.1166666)">
        <path
           d="M 0,0 H 12"
           style="fill:none;stroke:#ffffff;stroke-width:1.25;stroke-linecap:butt;stroke-linejoin:miter;stroke-miterlimit:10;stroke-dasharray:none;stroke-opacity:1"
           id="path988" />
      </g>
      <g
         id="g990"
         transform="matrix(0.35277777,0,0,-0.35277777,2.1166666,0)">
        <path
           d="M 0,0 V -12"
           style="fill:none;stroke:#ffffff;stroke-width:1.25;stroke-linecap:butt;stroke-linejoin:miter;stroke-miterlimit:10;stroke-dasharray:none;stroke-opacity:1"
           id="path992" />
      </g>
      <g
         id="g994"
         transform="matrix(0.35277777,0,0,-0.35277777,3.1749999,2.1166666)">
        <path
           d="m 0,0 c 0,-1.657 -1.343,-3 -3,-3 -1.657,0 -3,1.343 -3,3 0,1.657 1.343,3 3,3 1.657,0 3,-1.343 3,-3 z"
           style="fill:none;stroke:#ffffff;stroke-width:1.25;stroke-linecap:butt;stroke-linejoin:miter;stroke-miterlimit:10;stroke-dasharray:none;stroke-opacity:1"
           id="path996" />
      </g>
      <g
         id="g998"
         transform="matrix(0.35277777,0,0,-0.35277777,3.8805555,2.1166666)">
        <path
           d="m 0,0 c 0,-2.761 -2.239,-5 -5,-5 -2.761,0 -5,2.239 -5,5 0,2.761 2.239,5 5,5 2.761,0 5,-2.239 5,-5 z"
           style="fill:none;stroke:#000000;stroke-width:0.25;stroke-linecap:butt;stroke-linejoin:miter;stroke-miterlimit:10;stroke-dasharray:none;stroke-opacity:1"
           id="path1000" />
      </g>
      <g
         id="g1002"
         transform="matrix(0.35277777,0,0,-0.35277777,0,2.1166666)">
        <path
           d="M 0,0 H 12"
           style="fill:none;stroke:#000000;stroke-width:0.25;stroke-linecap:butt;stroke-linejoin:miter;stroke-miterlimit:10;stroke-dasharray:none;stroke-opacity:1"
           id="path1004" />
      </g>
      <g
         id="g1006"
         transform="matrix(0.35277777,0,0,-0.35277777,2.1166666,0)">
        <path
           d="M 0,0 V -12"
           style="fill:none;stroke:#000000;stroke-width:0.25;stroke-linecap:butt;stroke-linejoin:miter;stroke-miterlimit:10;stroke-dasharray:none;stroke-opacity:1"
           id="path1008" />
      </g>
      <g
         id="g1010"
         transform="matrix(0.35277777,0,0,-0.35277777,3.1749999,2.1166666)">
        <path
           d="m 0,0 c 0,-1.657 -1.343,-3 -3,-3 -1.657,0 -3,1.343 -3,3 0,1.657 1.343,3 3,3 1.657,0 3,-1.343 3,-3"
           style="fill:#000000;fill-opacity:1;fill-rule:nonzero;stroke:none"
           id="path1012" />
      </g>
      <g
         id="g1014"
         transform="matrix(0.35277777,0,0,-0.35277777,1.0583333,2.1166666)">
        <path
           d="M 0,0 H 6"
           style="fill:none;stroke:#ffffff;stroke-width:0.25;stroke-linecap:butt;stroke-linejoin:miter;stroke-miterlimit:10;stroke-dasharray:none;stroke-opacity:1"
           id="path1016" />
      </g>
      <g
         id="g1018"
         transform="matrix(0.35277777,0,0,-0.35277777,2.1166666,1.0583333)">
        <path
           d="M 0,0 V -6"
           style="fill:none;stroke:#ffffff;stroke-width:0.25;stroke-linecap:butt;stroke-linejoin:miter;stroke-miterlimit:10;stroke-dasharray:none;stroke-opacity:1"
           id="path1020" />
      </g>
    </g>
  </g>
</svg>
